{
	"asset":{
		"generator":"Khronos glTF Blender I/O v4.3.47",
		"version":"2.0"
	},
	"scene":0,
	"scenes":[
		{
			"name":"Scene",
			"nodes":[
				7,
				8,
				9
			]
		}
	],
	"nodes":[
		{
			"name":"Bone.005",
			"rotation":[
				0.04947356507182121,
				1.5072780001901265e-07,
				-4.113306483616297e-12,
				0.9987754225730896
			],
			"scale":[
				0.9999999403953552,
				1.0000001192092896,
				1
			],
			"translation":[
				9.159339953157541e-16,
				0.7423885464668274,
				9.313227966600834e-10
			]
		},
		{
			"children":[
				0
			],
			"name":"Bone.002",
			"rotation":[
				0.009498399682343006,
				-1.0667930894214805e-07,
				4.2089759455521403e-10,
				0.999954879283905
			],
			"scale":[
				0.9999999403953552,
				0.9999997615814209,
				0.9999998211860657
			],
			"translation":[
				4.11464888853616e-16,
				0.9043452143669128,
				-7.2177499532699585e-09
			]
		},
		{
			"children":[
				1
			],
			"name":"Bone.001",
			"rotation":[
				4.415808607660665e-09,
				0.9994868636131287,
				-0.032032426446676254,
				7.545915536866232e-08
			],
			"scale":[
				1,
				1.000000238418579,
				1
			],
			"translation":[
				-4.9537451370746874e-17,
				1.0862765312194824,
				-4.656612873077393e-10
			]
		},
		{
			"name":"Bone.003",
			"rotation":[
				-0.46226075291633606,
				-0.5568000078201294,
				-0.2328243851661682,
				0.6496779322624207
			],
			"scale":[
				1,
				1.0000001192092896,
				1.0000001192092896
			],
			"translation":[
				0.2808980941772461,
				0.9403446316719055,
				-0.1286454051733017
			]
		},
		{
			"name":"Bone.004",
			"rotation":[
				-0.4736154079437256,
				0.5558608174324036,
				0.246824711561203,
				0.6370123624801636
			],
			"scale":[
				0.9999999403953552,
				1,
				0.9999998807907104
			],
			"translation":[
				-0.25935664772987366,
				0.957797646522522,
				-0.12929154932498932
			]
		},
		{
			"children":[
				2,
				3,
				4
			],
			"name":"Bone",
			"rotation":[
				0.03971327096223831,
				1.0659194771278635e-07,
				4.236458739370619e-09,
				0.9992111325263977
			],
			"translation":[
				2.6469779601696886e-23,
				8.789356797933578e-08,
				1.1175870895385742e-08
			]
		},
		{
			"mesh":0,
			"name":"orca",
			"skin":0
		},
		{
			"children":[
				6,
				5
			],
			"name":"Armature.001",
			"rotation":[
				-0.7193397283554077,
				0,
				0,
				0.6946584582328796
			],
			"scale":[
				2.6016106605529785,
				2.6016106605529785,
				2.6016106605529785
			],
			"translation":[
				0,
				-0.12034916877746582,
				3.479184865951538
			]
		},
		{
			"name":"Armature",
			"rotation":[
				-0.7179017066955566,
				0,
				0,
				0.6961445212364197
			],
			"scale":[
				2.3667283058166504,
				2.3667283058166504,
				2.3667283058166504
			]
		},
		{
			"name":"Light"
		}
	],
	"animations":[
		{
			"channels":[
				{
					"sampler":0,
					"target":{
						"node":5,
						"path":"translation"
					}
				},
				{
					"sampler":1,
					"target":{
						"node":5,
						"path":"rotation"
					}
				},
				{
					"sampler":2,
					"target":{
						"node":5,
						"path":"scale"
					}
				},
				{
					"sampler":3,
					"target":{
						"node":2,
						"path":"translation"
					}
				},
				{
					"sampler":4,
					"target":{
						"node":2,
						"path":"rotation"
					}
				},
				{
					"sampler":5,
					"target":{
						"node":2,
						"path":"scale"
					}
				},
				{
					"sampler":6,
					"target":{
						"node":1,
						"path":"translation"
					}
				},
				{
					"sampler":7,
					"target":{
						"node":1,
						"path":"rotation"
					}
				},
				{
					"sampler":8,
					"target":{
						"node":1,
						"path":"scale"
					}
				},
				{
					"sampler":9,
					"target":{
						"node":0,
						"path":"translation"
					}
				},
				{
					"sampler":10,
					"target":{
						"node":0,
						"path":"rotation"
					}
				},
				{
					"sampler":11,
					"target":{
						"node":0,
						"path":"scale"
					}
				},
				{
					"sampler":12,
					"target":{
						"node":3,
						"path":"translation"
					}
				},
				{
					"sampler":13,
					"target":{
						"node":3,
						"path":"rotation"
					}
				},
				{
					"sampler":14,
					"target":{
						"node":3,
						"path":"scale"
					}
				},
				{
					"sampler":15,
					"target":{
						"node":4,
						"path":"translation"
					}
				},
				{
					"sampler":16,
					"target":{
						"node":4,
						"path":"rotation"
					}
				},
				{
					"sampler":17,
					"target":{
						"node":4,
						"path":"scale"
					}
				}
			],
			"name":"ATTACK",
			"samplers":[
				{
					"input":7,
					"interpolation":"LINEAR",
					"output":8
				},
				{
					"input":7,
					"interpolation":"LINEAR",
					"output":9
				},
				{
					"input":10,
					"interpolation":"STEP",
					"output":11
				},
				{
					"input":10,
					"interpolation":"LINEAR",
					"output":12
				},
				{
					"input":7,
					"interpolation":"LINEAR",
					"output":13
				},
				{
					"input":10,
					"interpolation":"STEP",
					"output":14
				},
				{
					"input":10,
					"interpolation":"LINEAR",
					"output":15
				},
				{
					"input":7,
					"interpolation":"LINEAR",
					"output":16
				},
				{
					"input":10,
					"interpolation":"STEP",
					"output":17
				},
				{
					"input":10,
					"interpolation":"LINEAR",
					"output":18
				},
				{
					"input":7,
					"interpolation":"LINEAR",
					"output":19
				},
				{
					"input":10,
					"interpolation":"STEP",
					"output":20
				},
				{
					"input":10,
					"interpolation":"LINEAR",
					"output":21
				},
				{
					"input":7,
					"interpolation":"LINEAR",
					"output":22
				},
				{
					"input":10,
					"interpolation":"STEP",
					"output":23
				},
				{
					"input":10,
					"interpolation":"LINEAR",
					"output":24
				},
				{
					"input":7,
					"interpolation":"LINEAR",
					"output":25
				},
				{
					"input":10,
					"interpolation":"STEP",
					"output":26
				}
			]
		},
		{
			"channels":[
				{
					"sampler":0,
					"target":{
						"node":5,
						"path":"translation"
					}
				},
				{
					"sampler":1,
					"target":{
						"node":5,
						"path":"rotation"
					}
				},
				{
					"sampler":2,
					"target":{
						"node":5,
						"path":"scale"
					}
				},
				{
					"sampler":3,
					"target":{
						"node":2,
						"path":"translation"
					}
				},
				{
					"sampler":4,
					"target":{
						"node":2,
						"path":"rotation"
					}
				},
				{
					"sampler":5,
					"target":{
						"node":2,
						"path":"scale"
					}
				},
				{
					"sampler":6,
					"target":{
						"node":1,
						"path":"translation"
					}
				},
				{
					"sampler":7,
					"target":{
						"node":1,
						"path":"rotation"
					}
				},
				{
					"sampler":8,
					"target":{
						"node":1,
						"path":"scale"
					}
				},
				{
					"sampler":9,
					"target":{
						"node":0,
						"path":"translation"
					}
				},
				{
					"sampler":10,
					"target":{
						"node":0,
						"path":"rotation"
					}
				},
				{
					"sampler":11,
					"target":{
						"node":0,
						"path":"scale"
					}
				},
				{
					"sampler":12,
					"target":{
						"node":3,
						"path":"translation"
					}
				},
				{
					"sampler":13,
					"target":{
						"node":3,
						"path":"rotation"
					}
				},
				{
					"sampler":14,
					"target":{
						"node":3,
						"path":"scale"
					}
				},
				{
					"sampler":15,
					"target":{
						"node":4,
						"path":"translation"
					}
				},
				{
					"sampler":16,
					"target":{
						"node":4,
						"path":"rotation"
					}
				},
				{
					"sampler":17,
					"target":{
						"node":4,
						"path":"scale"
					}
				}
			],
			"name":"swim",
			"samplers":[
				{
					"input":27,
					"interpolation":"STEP",
					"output":28
				},
				{
					"input":29,
					"interpolation":"LINEAR",
					"output":30
				},
				{
					"input":27,
					"interpolation":"STEP",
					"output":31
				},
				{
					"input":27,
					"interpolation":"STEP",
					"output":32
				},
				{
					"input":29,
					"interpolation":"LINEAR",
					"output":33
				},
				{
					"input":27,
					"interpolation":"STEP",
					"output":34
				},
				{
					"input":27,
					"interpolation":"STEP",
					"output":35
				},
				{
					"input":29,
					"interpolation":"LINEAR",
					"output":36
				},
				{
					"input":27,
					"interpolation":"STEP",
					"output":37
				},
				{
					"input":27,
					"interpolation":"STEP",
					"output":38
				},
				{
					"input":29,
					"interpolation":"LINEAR",
					"output":39
				},
				{
					"input":27,
					"interpolation":"STEP",
					"output":40
				},
				{
					"input":27,
					"interpolation":"STEP",
					"output":41
				},
				{
					"input":27,
					"interpolation":"STEP",
					"output":42
				},
				{
					"input":27,
					"interpolation":"STEP",
					"output":43
				},
				{
					"input":27,
					"interpolation":"STEP",
					"output":44
				},
				{
					"input":27,
					"interpolation":"STEP",
					"output":45
				},
				{
					"input":27,
					"interpolation":"STEP",
					"output":46
				}
			]
		}
	],
	"materials":[
		{
			"doubleSided":true,
			"name":"whale"
		}
	],
	"meshes":[
		{
			"name":"orca",
			"primitives":[
				{
					"attributes":{
						"POSITION":0,
						"NORMAL":1,
						"TEXCOORD_0":2,
						"JOINTS_0":3,
						"WEIGHTS_0":4
					},
					"indices":5,
					"material":0
				}
			]
		}
	],
	"skins":[
		{
			"inverseBindMatrices":6,
			"joints":[
				5,
				2,
				1,
				0,
				3,
				4
			],
			"name":"Armature.001"
		}
	],
	"accessors":[
		{
			"bufferView":0,
			"componentType":5126,
			"count":2047,
			"max":[
				2.3011670112609863,
				2.933537244796753,
				3.3537864685058594
			],
			"min":[
				-2.3011670112609863,
				-0.96541428565979,
				-6.518695831298828
			],
			"type":"VEC3"
		},
		{
			"bufferView":1,
			"componentType":5126,
			"count":2047,
			"type":"VEC3"
		},
		{
			"bufferView":2,
			"componentType":5126,
			"count":2047,
			"type":"VEC2"
		},
		{
			"bufferView":3,
			"componentType":5121,
			"count":2047,
			"type":"VEC4"
		},
		{
			"bufferView":4,
			"componentType":5126,
			"count":2047,
			"type":"VEC4"
		},
		{
			"bufferView":5,
			"componentType":5123,
			"count":11994,
			"type":"SCALAR"
		},
		{
			"bufferView":6,
			"componentType":5126,
			"count":6,
			"type":"MAT4"
		},
		{
			"bufferView":7,
			"componentType":5126,
			"count":25,
			"max":[
				1.0416666666666667
			],
			"min":[
				0.041666666666666664
			],
			"type":"SCALAR"
		},
		{
			"bufferView":8,
			"componentType":5126,
			"count":25,
			"type":"VEC3"
		},
		{
			"bufferView":9,
			"componentType":5126,
			"count":25,
			"type":"VEC4"
		},
		{
			"bufferView":10,
			"componentType":5126,
			"count":2,
			"max":[
				1.0416666666666667
			],
			"min":[
				0.041666666666666664
			],
			"type":"SCALAR"
		},
		{
			"bufferView":11,
			"componentType":5126,
			"count":2,
			"type":"VEC3"
		},
		{
			"bufferView":12,
			"componentType":5126,
			"count":2,
			"type":"VEC3"
		},
		{
			"bufferView":13,
			"componentType":5126,
			"count":25,
			"type":"VEC4"
		},
		{
			"bufferView":14,
			"componentType":5126,
			"count":2,
			"type":"VEC3"
		},
		{
			"bufferView":15,
			"componentType":5126,
			"count":2,
			"type":"VEC3"
		},
		{
			"bufferView":16,
			"componentType":5126,
			"count":25,
			"type":"VEC4"
		},
		{
			"bufferView":17,
			"componentType":5126,
			"count":2,
			"type":"VEC3"
		},
		{
			"bufferView":18,
			"componentType":5126,
			"count":2,
			"type":"VEC3"
		},
		{
			"bufferView":19,
			"componentType":5126,
			"count":25,
			"type":"VEC4"
		},
		{
			"bufferView":20,
			"componentType":5126,
			"count":2,
			"type":"VEC3"
		},
		{
			"bufferView":21,
			"componentType":5126,
			"count":2,
			"type":"VEC3"
		},
		{
			"bufferView":22,
			"componentType":5126,
			"count":25,
			"type":"VEC4"
		},
		{
			"bufferView":23,
			"componentType":5126,
			"count":2,
			"type":"VEC3"
		},
		{
			"bufferView":24,
			"componentType":5126,
			"count":2,
			"type":"VEC3"
		},
		{
			"bufferView":25,
			"componentType":5126,
			"count":25,
			"type":"VEC4"
		},
		{
			"bufferView":26,
			"componentType":5126,
			"count":2,
			"type":"VEC3"
		},
		{
			"bufferView":27,
			"componentType":5126,
			"count":2,
			"max":[
				0.4166666666666667
			],
			"min":[
				0.041666666666666664
			],
			"type":"SCALAR"
		},
		{
			"bufferView":28,
			"componentType":5126,
			"count":2,
			"type":"VEC3"
		},
		{
			"bufferView":29,
			"componentType":5126,
			"count":10,
			"max":[
				0.4166666666666667
			],
			"min":[
				0.041666666666666664
			],
			"type":"SCALAR"
		},
		{
			"bufferView":30,
			"componentType":5126,
			"count":10,
			"type":"VEC4"
		},
		{
			"bufferView":31,
			"componentType":5126,
			"count":2,
			"type":"VEC3"
		},
		{
			"bufferView":32,
			"componentType":5126,
			"count":2,
			"type":"VEC3"
		},
		{
			"bufferView":33,
			"componentType":5126,
			"count":10,
			"type":"VEC4"
		},
		{
			"bufferView":34,
			"componentType":5126,
			"count":2,
			"type":"VEC3"
		},
		{
			"bufferView":35,
			"componentType":5126,
			"count":2,
			"type":"VEC3"
		},
		{
			"bufferView":36,
			"componentType":5126,
			"count":10,
			"type":"VEC4"
		},
		{
			"bufferView":37,
			"componentType":5126,
			"count":2,
			"type":"VEC3"
		},
		{
			"bufferView":38,
			"componentType":5126,
			"count":2,
			"type":"VEC3"
		},
		{
			"bufferView":39,
			"componentType":5126,
			"count":10,
			"type":"VEC4"
		},
		{
			"bufferView":40,
			"componentType":5126,
			"count":2,
			"type":"VEC3"
		},
		{
			"bufferView":41,
			"componentType":5126,
			"count":2,
			"type":"VEC3"
		},
		{
			"bufferView":42,
			"componentType":5126,
			"count":2,
			"type":"VEC4"
		},
		{
			"bufferView":43,
			"componentType":5126,
			"count":2,
			"type":"VEC3"
		},
		{
			"bufferView":44,
			"componentType":5126,
			"count":2,
			"type":"VEC3"
		},
		{
			"bufferView":45,
			"componentType":5126,
			"count":2,
			"type":"VEC4"
		},
		{
			"bufferView":46,
			"componentType":5126,
			"count":2,
			"type":"VEC3"
		}
	],
	"bufferViews":[
		{
			"buffer":0,
			"byteLength":24564,
			"byteOffset":0,
			"target":34962
		},
		{
			"buffer":0,
			"byteLength":24564,
			"byteOffset":24564,
			"target":34962
		},
		{
			"buffer":0,
			"byteLength":16376,
			"byteOffset":49128,
			"target":34962
		},
		{
			"buffer":0,
			"byteLength":8188,
			"byteOffset":65504,
			"target":34962
		},
		{
			"buffer":0,
			"byteLength":32752,
			"byteOffset":73692,
			"target":34962
		},
		{
			"buffer":0,
			"byteLength":23988,
			"byteOffset":106444,
			"target":34963
		},
		{
			"buffer":0,
			"byteLength":384,
			"byteOffset":130432
		},
		{
			"buffer":0,
			"byteLength":100,
			"byteOffset":130816
		},
		{
			"buffer":0,
			"byteLength":300,
			"byteOffset":130916
		},
		{
			"buffer":0,
			"byteLength":400,
			"byteOffset":131216
		},
		{
			"buffer":0,
			"byteLength":8,
			"byteOffset":131616
		},
		{
			"buffer":0,
			"byteLength":24,
			"byteOffset":131624
		},
		{
			"buffer":0,
			"byteLength":24,
			"byteOffset":131648
		},
		{
			"buffer":0,
			"byteLength":400,
			"byteOffset":131672
		},
		{
			"buffer":0,
			"byteLength":24,
			"byteOffset":132072
		},
		{
			"buffer":0,
			"byteLength":24,
			"byteOffset":132096
		},
		{
			"buffer":0,
			"byteLength":400,
			"byteOffset":132120
		},
		{
			"buffer":0,
			"byteLength":24,
			"byteOffset":132520
		},
		{
			"buffer":0,
			"byteLength":24,
			"byteOffset":132544
		},
		{
			"buffer":0,
			"byteLength":400,
			"byteOffset":132568
		},
		{
			"buffer":0,
			"byteLength":24,
			"byteOffset":132968
		},
		{
			"buffer":0,
			"byteLength":24,
			"byteOffset":132992
		},
		{
			"buffer":0,
			"byteLength":400,
			"byteOffset":133016
		},
		{
			"buffer":0,
			"byteLength":24,
			"byteOffset":133416
		},
		{
			"buffer":0,
			"byteLength":24,
			"byteOffset":133440
		},
		{
			"buffer":0,
			"byteLength":400,
			"byteOffset":133464
		},
		{
			"buffer":0,
			"byteLength":24,
			"byteOffset":133864
		},
		{
			"buffer":0,
			"byteLength":8,
			"byteOffset":133888
		},
		{
			"buffer":0,
			"byteLength":24,
			"byteOffset":133896
		},
		{
			"buffer":0,
			"byteLength":40,
			"byteOffset":133920
		},
		{
			"buffer":0,
			"byteLength":160,
			"byteOffset":133960
		},
		{
			"buffer":0,
			"byteLength":24,
			"byteOffset":134120
		},
		{
			"buffer":0,
			"byteLength":24,
			"byteOffset":134144
		},
		{
			"buffer":0,
			"byteLength":160,
			"byteOffset":134168
		},
		{
			"buffer":0,
			"byteLength":24,
			"byteOffset":134328
		},
		{
			"buffer":0,
			"byteLength":24,
			"byteOffset":134352
		},
		{
			"buffer":0,
			"byteLength":160,
			"byteOffset":134376
		},
		{
			"buffer":0,
			"byteLength":24,
			"byteOffset":134536
		},
		{
			"buffer":0,
			"byteLength":24,
			"byteOffset":134560
		},
		{
			"buffer":0,
			"byteLength":160,
			"byteOffset":134584
		},
		{
			"buffer":0,
			"byteLength":24,
			"byteOffset":134744
		},
		{
			"buffer":0,
			"byteLength":24,
			"byteOffset":134768
		},
		{
			"buffer":0,
			"byteLength":32,
			"byteOffset":134792
		},
		{
			"buffer":0,
			"byteLength":24,
			"byteOffset":134824
		},
		{
			"buffer":0,
			"byteLength":24,
			"byteOffset":134848
		},
		{
			"buffer":0,
			"byteLength":32,
			"byteOffset":134872
		},
		{
			"buffer":0,
			"byteLength":24,
			"byteOffset":134904
		}
	],
	"buffers":[
		{
			"byteLength":134928,
			"uri":"whale.CYCLES.bin"
		}
	]
}
